<?xml version="1.0" encoding="utf-8"?>
<!-- Generator: Adobe Illustrator 19.2.0, SVG Export Plug-In . SVG Version: 6.00 Build 0)  -->
<svg version="1.1" id="Layer_1" xmlns="http://www.w3.org/2000/svg" xmlns:xlink="http://www.w3.org/1999/xlink" x="0px" y="0px"
	 viewBox="0 0 495 495" style="enable-background:new 0 0 495 495;" xml:space="preserve">
<style type="text/css">
	.st0{fill:#FFDA44;}
	.st1{fill:#E5A507;}
	.st2{fill:#FBBC0E;}
	.st3{fill:#AA6100;}
</style>
<g>
	<path class="st0" d="M180,107.5c0-37.2,30.3-67.5,67.5-67.5S315,70.3,315,107.5v45.8c14.4,5.9,27.8,13.7,40,23v-68.9
		C355,48.2,306.8,0,247.5,0S140,48.2,140,107.5v68.9c12.2-9.3,25.6-17.1,40-23V107.5z"/>
	<path class="st1" d="M355,176.4c-12.2-9.3-25.6-17.1-40-23c-20.8-8.6-43.6-13.3-67.5-13.3v113.9c22.1,0,40,17.9,40,40
		c0,14.8-8.1,27.7-20,34.6v50.6h-20V495c97.9,0,177.5-79.6,177.5-177.5C425,260,397.5,208.8,355,176.4z"/>
	<path class="st2" d="M227.5,379.1v-50.6c-11.9-6.9-20-19.8-20-34.6c0-22.1,17.9-40,40-40V140c-23.9,0-46.7,4.8-67.5,13.3
		c-14.4,5.9-27.8,13.7-40,23C97.5,208.8,70,260,70,317.5C70,415.4,149.6,495,247.5,495V379.1H227.5z"/>
	<path class="st3" d="M207.5,293.9c0,14.8,8.1,27.7,20,34.6v50.6h40v-50.6c11.9-6.9,20-19.8,20-34.6c0-22.1-17.9-40-40-40
		S207.5,271.9,207.5,293.9z"/>
</g>
</svg>
