<svg id="Flat" enable-background="new 0 0 512 512" height="512" viewBox="0 0 512 512" width="512" xmlns="http://www.w3.org/2000/svg"><g fill="#ff7b66"><circle cx="400" cy="88" r="40"/><path d="m392 16h16v16h-16z"/><path d="m392 144h16v16h-16z"/><path d="m346.745 34.745h16v16h-16z" transform="matrix(.707 -.707 .707 .707 73.687 263.375)"/><path d="m437.255 125.255h16v16h-16z" transform="matrix(.707 -.707 .707 .707 36.196 353.89)"/><path d="m346.745 125.255h16v16h-16z" transform="matrix(.707 -.707 .707 .707 9.664 289.842)"/><path d="m437.255 34.745h16v16h-16z" transform="matrix(.707 -.707 .707 .707 100.162 327.333)"/><path d="m328 80h16v16h-16z"/><path d="m456 80h16v16h-16z"/></g><path d="m24 480v-320l136.017-120 135.983 120v320z" fill="#d7f0a0"/><path d="m216 472h-112v-152c0-30.928 25.072-56 56-56 30.928 0 56 25.072 56 56z" fill="#fdfefc"/><path d="m176 368h16v32h-16z" fill="#caeb80"/><path d="m312 144-152-136-152 136v24h24.649l127.351-112 127.351 112h24.649z" fill="#bde660"/><path d="m200 232h-80v-72c0-22.091 17.909-40 40-40 22.091 0 40 17.909 40 40z" fill="#fdfefc"/><path d="m200 224v-24h-80v24h-24v16h128v-16z" fill="#caeb80"/><path d="m490.56 328-13.44-48c-4.48-16-8.96-32-13.44-48h-183.68c-4.48 16-8.96 32-13.44 48l-13.44 48c-4.48 16-8.96 32-13.44 48h264.32c-4.48-16-8.96-32-13.44-48z" fill="#ffde66"/><path d="m504.025 373.843-13.44-48c-.001-.004-.002-.008-.003-.012l-13.434-47.979c-.001-.003-.001-.006-.002-.009l-13.44-48c-.969-3.455-4.118-5.843-7.706-5.843h-183.68c-3.588 0-6.736 2.388-7.704 5.843l-13.44 48c-.001.003-.001.006-.002.009l-13.434 47.979c-.001.004-.002.008-.003.012l-13.44 48c-.675 2.41-.183 4.998 1.33 6.992s3.87 3.165 6.373 3.165h120.32v64h-16c-4.418 0-8 3.582-8 8v24h80v-24c0-4.418-3.582-8-8-8h-16v-64h112c2.503 0 4.861-1.171 6.374-3.166s2.006-4.581 1.331-6.991zm-165.424-133.843h51.119l3.201 32h-57.521zm-4.8 48h60.72l3.2 32h-67.12zm-24.081 80h-67.172l8.96-32h61.413zm4.801-48h-58.532l8.959-32h52.773zm4.8-48h-49.893l8.96-32h44.133zm6.479 96 3.201-32h70.319l3.2 32zm80-128h44.133l8.96 32h-49.892zm4.801 48h52.772l8.959 32h-58.531zm8 80-3.2-32h61.412l8.96 32z" fill="#fcbf58"/><path d="m8 472h496v32h-496z" fill="#bde660"/></svg>